# File created by Blade
# Date/Time:  Tue Jan 27 19:23:26 2015
#---------------------------------------------------------
:version 1.10
:name HOM
:units
  mass 1.0
  length 1.000000
  angle deg
:documentation
     Acclaim Skeleton File
:root
   axis xyz
   order TX TY TZ RX RY RZ
   position 0.000000 0.000000 0.000000
   orientation 0 0 0
:bonedata
   begin
      id 1
      name Spine_dum
      direction 0.000000 1.000000 0.000000
      length 6.116652
      axis 0.0 0.0 0.0 xyz
   end
   begin
      id 2
      name LeftUpLeg_dum
      direction 1.000000 0.000000 0.000000
      length 4.711765
      axis 0.0 0.0 0.0 xyz
   end
   begin
      id 3
      name RightUpLeg_dum
      direction -1.000000 0.000000 0.000000
      length 4.711765
      axis 0.0 0.0 0.0 xyz
   end
   begin
      id 4
      name Spine
      direction 0.000000 1.000000 0.000000
      length 0.000000
      axis 0.0 0.0 0.0 xyz
      dof rx ry rz
   end
   begin
      id 5
      name Spine_dum1
      direction 0.000000 1.000000 0.000000
      length 15.225563
      axis 0.0 0.0 0.0 xyz
   end
   begin
      id 6
      name Spine_dum2
      direction 0.000000 1.000000 0.000000
      length 8.977654
      axis 0.0 0.0 0.0 xyz
   end
   begin
      id 7
      name Spine_dum3
      direction 0.000000 1.000000 0.000000
      length 8.977654
      axis 0.0 0.0 0.0 xyz
   end
   begin
      id 8
      name Head
      direction 0.000000 1.000000 0.000000
      length 4.527550
      axis 0.0 0.0 0.0 xyz
      dof rx ry rz
   end
   begin
      id 9
      name LeftShoulder
      direction 1.000000 0.000000 0.000000
      length 7.110130
      axis 0.0 0.0 -90.0 xyz
      dof rx ry rz
   end
   begin
      id 10
      name LeftArm
      direction 1.000000 0.000000 0.000000
      length 10.398341
      axis 0.0 0.0 -90.0 xyz
      dof rx ry rz
   end
   begin
      id 11
      name LeftForeArm
      direction 1.000000 0.000000 0.000000
      length 8.888997
      axis 0.0 0.0 -90.0 xyz
      dof ry rz rx
   end
   begin
      id 12
      name LeftHand
      direction 0.000000 0.000000 0.000000
      length 0.000000
      axis 0.0 0.0 -90.0 xyz
      dof rx ry rz
   end
   begin
      id 13
      name LeftHand_dum1
      direction 0.000000 0.000000 0.000000
      length 0.000000
      axis 0.0 0.0 -90.0 xyz
   end
   begin
      id 14
      name LeftHand_dum2
      direction 1.000000 0.000000 0.000000
      length 3.937000
      axis 0.0 0.0 -90.0 xyz
   end
   begin
      id 15
      name LeftHandThumb1
      direction 0.000000 0.000000 1.000000
      length 3.937000
      axis 0.0 0.0 -90.0 xyz
      dof rx rz ry
   end
   begin
      id 16
      name RightShoulder
      direction -1.000000 0.000000 0.000000
      length 7.110130
      axis 0.0 0.0 90.0 xyz
      dof rx ry rz
   end
   begin
      id 17
      name RightArm
      direction -1.000000 0.000000 0.000000
      length 10.398341
      axis 0.0 0.0 90.0 xyz
      dof rx ry rz
   end
   begin
      id 18
      name RightForeArm
      direction -1.000000 0.000000 0.000000
      length 8.888997
      axis 0.0 0.0 90.0 xyz
      dof ry rz rx
   end
   begin
      id 19
      name RightHand
      direction 0.000000 0.000000 0.000000
      length 0.000000
      axis 0.0 0.0 90.0 xyz
      dof rx ry rz
   end
   begin
      id 20
      name RightHand_dum1
      direction 0.000000 0.000000 0.000000
      length 0.000000
      axis 0.0 0.0 90.0 xyz
   end
   begin
      id 21
      name RightHand_dum2
      direction -1.000000 0.000000 0.000000
      length 3.937000
      axis 0.0 0.0 90.0 xyz
   end
   begin
      id 22
      name RightHandThumb1
      direction 0.000000 0.000000 1.000000
      length 3.937000
      axis 0.0 0.0 90.0 xyz
      dof rx rz ry
   end
   begin
      id 23
      name LeftUpLeg
      direction 0.000000 -1.000000 0.000000
      length 15.510451
      axis 0.0 0.0 0.0 xyz
      dof rx ry rz
   end
   begin
      id 24
      name LeftLeg
      direction 0.000000 -1.000000 0.000000
      length 14.858061
      axis 0.0 0.0 0.0 xyz
      dof rx ry rz
   end
   begin
      id 25
      name LeftFoot
      direction 0.000000 -0.258819 0.965926
      length 5.128852
      axis 15.0 0.0 0.0 xyz
      dof rx ry rz
   end
   begin
      id 26
      name LeftToeBase
      direction 0.000000 0.000000 1.000000
      length 2.952750
      axis 0.0 0.0 0.0 xyz
      dof rx ry rz
   end
   begin
      id 27
      name RightUpLeg
      direction 0.000000 -1.000000 0.000000
      length 15.510451
      axis 0.0 0.0 0.0 xyz
      dof rx ry rz
   end
   begin
      id 28
      name RightLeg
      direction 0.000000 -1.000000 0.000000
      length 14.858061
      axis 0.0 0.0 0.0 xyz
      dof rx ry rz
   end
   begin
      id 29
      name RightFoot
      direction 0.000000 -0.258819 0.965926
      length 5.128852
      axis 15.0 0.0 0.0 xyz
      dof rx ry rz
   end
   begin
      id 30
      name RightToeBase
      direction 0.000000 0.000000 1.000000
      length 2.952750
      axis 0.0 0.0 0.0 xyz
      dof rx ry rz
   end
:hierarchy
   begin
      root Spine_dum LeftUpLeg_dum RightUpLeg_dum
      Spine_dum Spine
      LeftUpLeg_dum LeftUpLeg
      RightUpLeg_dum RightUpLeg
      Spine Spine_dum1 Spine_dum2 Spine_dum3
      Spine_dum1 Head
      Spine_dum2 LeftShoulder
      Spine_dum3 RightShoulder
      LeftShoulder LeftArm
      LeftArm LeftForeArm
      LeftForeArm LeftHand
      LeftHand LeftHand_dum1 LeftHand_dum2
      LeftHand_dum1 LeftHandThumb1
      RightShoulder RightArm
      RightArm RightForeArm
      RightForeArm RightHand
      RightHand RightHand_dum1 RightHand_dum2
      RightHand_dum1 RightHandThumb1
      LeftUpLeg LeftLeg
      LeftLeg LeftFoot
      LeftFoot LeftToeBase
      RightUpLeg RightLeg
      RightLeg RightFoot
      RightFoot RightToeBase
   end

# File created by Blade
# Date/Time:  Tue Jan 27 19:23:16 2015
# Frame Rate: 120.000 fps
#------------------------------------------------------
:FULLY-SPECIFIED
:DEGREES
137
root 3.920272 32.363304 -0.083064 -2.700458 1.102343 0.619662
Spine 2.954260 3.982465 0.478661
Head 1.917292 -5.050453 1.703902
LeftShoulder -13.666486 -5.583976 42.134929
LeftArm 17.051396 -10.867157 -41.984628
LeftForeArm 21.797994 -0.000000 -9.977392
LeftHand 9.358801 -0.000000 -6.389778
LeftHandThumb1 -26.253704 0.000000 33.147579
RightShoulder -18.825535 -17.880764 -39.597344
RightArm 19.108130 16.370390 39.870726
RightForeArm -18.812896 -0.000000 6.270831
RightHand 16.709540 -0.000000 6.442888
RightHandThumb1 -24.326973 -0.000000 -32.862282
LeftUpLeg 8.660062 1.054882 -0.523712
LeftLeg 1.584375 -0.000000 -0.000000
LeftFoot -17.208537 13.573780 -23.167259
LeftToeBase 16.754375 -0.000000 -0.000000
RightUpLeg 7.459302 -8.496626 1.154084
RightLeg 0.420299 -0.000000 -0.000000
RightFoot -12.037235 -14.178444 13.458171
RightToeBase 10.924692 -0.000000 -0.000000
138
root 3.921823 32.363253 -0.084564 -2.689628 1.098398 0.626285
Spine 2.960738 3.987378 0.476982
Head 1.899000 -5.052495 1.716305
LeftShoulder -13.677347 -5.585059 42.136783
LeftArm 17.055577 -10.840435 -41.977674
LeftForeArm 21.817033 -0.000000 -9.979468
LeftHand 9.333271 0.000000 -6.405711
LeftHandThumb1 -26.253704 0.000000 33.147579
RightShoulder -18.834614 -17.877537 -39.595311
RightArm 19.124585 16.381721 39.872033
RightForeArm -18.824632 -0.000000 6.252136
RightHand 16.752906 -0.000000 6.360263
RightHandThumb1 -24.326973 -0.000000 -32.862282
LeftUpLeg 8.647251 1.027104 -0.539446
LeftLeg 1.585612 -0.000000 -0.000000
LeftFoot -17.217760 13.603665 -23.191029
LeftToeBase 16.795053 -0.000000 -0.000000
RightUpLeg 7.437676 -8.483802 1.148638
RightLeg 0.434416 -0.000000 -0.000000
RightFoot -12.061700 -14.178840 13.497737
RightToeBase 10.942185 -0.000000 -0.000000
139
root 3.921661 32.363172 -0.082473 -2.698288 1.103626 0.622537
Spine 2.977076 3.992336 0.485958
Head 1.901408 -5.055451 1.716299
LeftShoulder -13.675940 -5.598863 42.133754
LeftArm 17.059862 -10.817703 -41.961581
LeftForeArm 21.848239 -0.000000 -9.989914
LeftHand 9.305594 -0.000000 -6.393503
LeftHandThumb1 -26.253704 0.000000 33.147579
RightShoulder -18.834083 -17.902369 -39.591641
RightArm 19.129069 16.406949 39.874893
RightForeArm -18.806225 0.000000 6.265941
RightHand 16.737252 -0.000000 6.346865
RightHandThumb1 -24.326973 -0.000000 -32.862282
LeftUpLeg 8.660789 1.051073 -0.530601
LeftLeg 1.580312 -0.000000 -0.000000
LeftFoot -17.212065 13.583912 -23.183013
LeftToeBase 16.747487 -0.000000 -0.000000
RightUpLeg 7.454624 -8.492895 1.149350
RightLeg 0.427879 -0.000000 -0.000000
RightFoot -12.050552 -14.178823 13.474592
RightToeBase 10.928023 -0.000000 -0.000000
140
root 3.921688 32.363108 -0.081875 -2.702521 1.103960 0.623544
Spine 2.990990 3.994022 0.488214
Head 1.905606 -5.054488 1.720021
LeftShoulder -13.678889 -5.563048 42.142075
LeftArm 17.067995 -10.641568 -41.929648
LeftForeArm 21.687503 -0.000000 -9.973252
LeftHand 9.296197 -0.000000 -6.482415
LeftHandThumb1 -26.253704 0.000000 33.147579
RightShoulder -18.826575 -17.900295 -39.597352
RightArm 19.124848 16.404896 39.873092
RightForeArm -18.804795 -0.000000 6.264994
RightHand 16.734907 0.000000 6.350291
RightHandThumb1 -24.326973 -0.000000 -32.862282
LeftUpLeg 8.665791 1.048181 -0.531169
LeftLeg 1.580828 -0.000000 -0.000000
LeftFoot -17.202080 13.584671 -23.163994
LeftToeBase 16.791898 -0.000000 -0.000000
RightUpLeg 7.456734 -8.501698 1.148363
RightLeg 0.433758 -0.000000 -0.000000
RightFoot -12.064244 -14.179162 13.475102
RightToeBase 10.992340 -0.000000 -0.000000
141
root 3.922082 32.362876 -0.082110 -2.699269 1.105578 0.620034
Spine 2.998912 3.993165 0.496378
Head 1.904893 -5.050961 1.724716
LeftShoulder -13.689517 -5.570418 42.134819
LeftArm 17.093360 -10.802476 -41.953413
LeftForeArm 21.881053 -0.000000 -10.005854
LeftHand 9.328833 -0.000000 -6.452590
LeftHandThumb1 -26.253704 0.000000 33.147579
RightShoulder -18.816311 -17.864778 -39.599700
RightArm 19.104007 16.355138 39.835735
RightForeArm -18.758780 -0.000000 6.245757
RightHand 16.715656 0.000000 6.353411
RightHandThumb1 -24.326973 -0.000000 -32.862282
LeftUpLeg 8.660070 1.034993 -0.531178
LeftLeg 1.586522 -0.000000 -0.000000
LeftFoot -17.218470 13.592326 -23.175054
LeftToeBase 16.758829 -0.000000 -0.000000
RightUpLeg 7.454560 -8.504484 1.150715
RightLeg 0.431276 -0.000000 -0.000000
RightFoot -12.057565 -14.166257 13.482642
RightToeBase 10.976559 -0.000000 -0.000000
142
root 3.923204 32.362945 -0.083872 -2.687443 1.098653 0.622985
Spine 3.001451 3.999357 0.497400
Head 1.903903 -5.033217 1.737115
LeftShoulder -13.696157 -5.552744 42.118917
LeftArm 17.107183 -10.832263 -41.942502
LeftForeArm 21.940302 -0.000000 -9.975653
LeftHand 9.057333 0.000000 -6.575258
LeftHandThumb1 -26.253704 0.000000 33.147579
RightShoulder -18.824090 -17.867285 -39.593192
RightArm 19.135101 16.339811 39.823316
RightForeArm -18.727076 0.000000 6.210905
RightHand 16.738070 -0.000000 6.359507
RightHandThumb1 -24.326973 -0.000000 -32.862282
LeftUpLeg 8.641469 1.058312 -0.533613
LeftLeg 1.593450 -0.000000 -0.000000
LeftFoot -17.215884 13.579291 -23.181402
LeftToeBase 16.811136 -0.000000 -0.000000
RightUpLeg 7.425787 -8.442207 1.151646
RightLeg 0.456578 -0.000000 -0.000000
RightFoot -12.084347 -14.197262 13.544527
RightToeBase 10.941633 -0.000000 -0.000000
143
root 3.924299 32.362756 -0.083575 -2.684072 1.106324 0.626505
Spine 3.008204 3.999007 0.500717
Head 1.911121 -5.026587 1.731871
LeftShoulder -13.689964 -5.544467 42.120687
LeftArm 17.095512 -10.767314 -41.929138
LeftForeArm 21.864676 -0.000000 -9.958800
LeftHand 9.063723 -0.000000 -6.586809
LeftHandThumb1 -26.253704 0.000000 33.147579
RightShoulder -18.819087 -17.862979 -39.590120
RightArm 19.125454 16.324137 39.801261
RightForeArm -18.700861 0.000000 6.206582
RightHand 16.730123 -0.000000 6.370128
RightHandThumb1 -24.326973 -0.000000 -32.862282
LeftUpLeg 8.639502 1.030804 -0.543880
LeftLeg 1.589919 -0.000000 -0.000000
LeftFoot -17.216968 13.609275 -23.166358
LeftToeBase 16.796678 -0.000000 -0.000000
RightUpLeg 7.434171 -8.482000 1.145000
RightLeg 0.437295 -0.000000 -0.000000
RightFoot -12.062191 -14.190724 13.489140
RightToeBase 10.916412 -0.000000 -0.000000
144
root 3.923836 32.362865 -0.083452 -2.681944 1.106538 0.622403
Spine 3.019737 3.995558 0.507832
Head 1.910727 -5.011603 1.733380
LeftShoulder -13.695431 -5.546235 42.121699
LeftArm 17.076529 -10.782407 -41.921353
LeftForeArm 21.862198 -0.000000 -9.952129
LeftHand 9.141474 -0.000000 -6.574611
LeftHandThumb1 -26.253704 0.000000 33.147579
RightShoulder -18.809737 -17.847944 -39.586320
RightArm 19.118754 16.332358 39.790387
RightForeArm -18.672418 -0.000000 6.207065
RightHand 16.697092 -0.000000 6.398648
RightHandThumb1 -24.326973 -0.000000 -32.862282
LeftUpLeg 8.637574 1.038700 -0.536301
LeftLeg 1.589989 -0.000000 -0.000000
LeftFoot -17.220686 13.586669 -23.179346
LeftToeBase 16.795797 -0.000000 -0.000000
RightUpLeg 7.423109 -8.447044 1.151355
RightLeg 0.455857 -0.000000 -0.000000
RightFoot -12.076630 -14.199840 13.533190
RightToeBase 10.876298 -0.000000 -0.000000
145
root 3.924553 32.362528 -0.082872 -2.683029 1.108296 0.627981
Spine 3.027108 4.013624 0.501605
Head 1.929419 -5.003326 1.745255
LeftShoulder -13.674687 -5.572890 42.125056
LeftArm 17.056129 -10.757580 -41.901958
LeftForeArm 21.861963 -0.000000 -9.968430
LeftHand 9.181568 -0.000000 -6.520023
LeftHandThumb1 -26.253704 0.000000 33.147579
RightShoulder -18.811301 -17.811191 -39.590846
RightArm 19.109658 16.393550 39.814792
RightForeArm -18.786444 -0.000000 6.183427
RightHand 16.700451 -0.000000 6.413242
RightHandThumb1 -24.326973 -0.000000 -32.862282
LeftUpLeg 8.641555 1.067219 -0.536103
LeftLeg 1.576287 -0.000000 -0.000000
LeftFoot -17.274647 13.546120 -23.316946
LeftToeBase 17.036878 -0.000000 -0.000000
RightUpLeg 7.425735 -8.477688 1.139851
RightLeg 0.455803 -0.000000 -0.000000
RightFoot -12.075057 -14.164257 13.535271
RightToeBase 10.857993 -0.000000 -0.000000
146
root 3.925993 32.362252 -0.081820 -2.686557 1.119765 0.631396
Spine 3.042570 4.006662 0.505557
Head 1.931181 -4.991865 1.743219
LeftShoulder -13.678889 -5.610283 42.131615
LeftArm 17.029025 -10.748918 -41.895064
LeftForeArm 21.877500 -0.000000 -9.975892
LeftHand 9.205777 -0.000000 -6.498709
LeftHandThumb1 -26.253704 0.000000 33.147579
RightShoulder -18.808526 -17.781515 -39.606275
RightArm 19.075381 16.295759 39.783070
RightForeArm -18.671013 -0.000000 6.202298
RightHand 16.637771 0.000000 6.422095
RightHandThumb1 -24.326973 -0.000000 -32.862282
LeftUpLeg 8.645167 1.049194 -0.546599
LeftLeg 1.585117 -0.000000 -0.000000
LeftFoot -17.205202 13.582694 -23.155214
LeftToeBase 16.819916 -0.000000 -0.000000
RightUpLeg 7.462655 -8.569668 1.133071
RightLeg 0.395388 -0.000000 -0.000000
RightFoot -12.034346 -14.169637 13.438558
RightToeBase 10.894177 -0.000000 -0.000000
147
root 3.925367 32.362158 -0.082208 -2.678206 1.119594 0.624987
Spine 3.044872 4.008114 0.511840
Head 1.935774 -4.986030 1.756431
LeftShoulder -13.690084 -5.563327 42.124241
LeftArm 17.075225 -10.811280 -41.904605
LeftForeArm 21.910306 -0.000000 -9.991988
LeftHand 9.206067 -0.000000 -6.496546
LeftHandThumb1 -26.253704 0.000000 33.147579
RightShoulder -18.799373 -17.741137 -39.610434
RightArm 19.051805 16.263913 39.772347
RightForeArm -18.659100 -0.000000 6.195979
RightHand 16.632039 -0.000000 6.369102
RightHandThumb1 -24.326973 -0.000000 -32.862282
LeftUpLeg 8.636203 1.052229 -0.538173
LeftLeg 1.585949 -0.000000 -0.000000
LeftFoot -17.204930 13.575865 -23.149329
LeftToeBase 16.765666 -0.000000 -0.000000
RightUpLeg 7.427119 -8.513531 1.140072
RightLeg 0.448591 -0.000000 -0.000000
RightFoot -12.076359 -14.158465 13.531760
RightToeBase 10.899874 -0.000000 -0.000000
148
root 3.926219 32.362207 -0.081856 -2.674883 1.127212 0.624556
Spine 3.050007 4.003715 0.517958
Head 1.943565 -4.959431 1.752071
LeftShoulder -13.695155 -5.575025 42.122392
LeftArm 17.069886 -10.790124 -41.892303
LeftForeArm 21.915246 -0.000000 -9.998329
LeftHand 9.214702 -0.000000 -6.500582
LeftHandThumb1 -26.253704 0.000000 33.147579
RightShoulder -18.791208 -17.728923 -39.613569
RightArm 19.053823 16.282089 39.783876
RightForeArm -18.653148 -0.000000 6.172451
RightHand 16.625431 -0.000000 6.305203
RightHandThumb1 -24.326973 -0.000000 -32.862282
LeftUpLeg 8.632948 1.054572 -0.539868
LeftLeg 1.584261 -0.000000 -0.000000
LeftFoot -17.204181 13.572708 -23.150712
LeftToeBase 16.782247 -0.000000 -0.000000
RightUpLeg 7.427084 -8.528100 1.138420
RightLeg 0.445121 -0.000000 -0.000000
RightFoot -12.075841 -14.159679 13.521488
RightToeBase 10.920661 -0.000000 -0.000000
